<?xml version="1.0" encoding="UTF-8" standalone="no"?>
<!-- Created with Inkscape (http://www.inkscape.org/) -->

<svg
   width="166.18831mm"
   height="166.18831mm"
   viewBox="0 0 166.18831 166.18831"
   version="1.1"
   id="svg5"
   inkscape:version="1.1.1 (3bf5ae0d25, 2021-09-20, custom)"
   sodipodi:docname="pk.svg"
   xmlns:inkscape="http://www.inkscape.org/namespaces/inkscape"
   xmlns:sodipodi="http://sodipodi.sourceforge.net/DTD/sodipodi-0.dtd"
   xmlns="http://www.w3.org/2000/svg"
   xmlns:svg="http://www.w3.org/2000/svg">
  <sodipodi:namedview
     id="namedview7"
     pagecolor="#ffffff"
     bordercolor="#666666"
     borderopacity="1.0"
     inkscape:pageshadow="2"
     inkscape:pageopacity="0.0"
     inkscape:pagecheckerboard="0"
     inkscape:document-units="mm"
     showgrid="false"
     inkscape:zoom="1.5208672"
     inkscape:cx="256.76141"
     inkscape:cy="278.78831"
     inkscape:window-width="1908"
     inkscape:window-height="1043"
     inkscape:window-x="6"
     inkscape:window-y="31"
     inkscape:window-maximized="1"
     inkscape:current-layer="layer1"
     fit-margin-top="0"
     fit-margin-left="0"
     fit-margin-right="0"
     fit-margin-bottom="0" />
  <defs
     id="defs2">
    <rect
       x="230.12785"
       y="617.36639"
       width="364.32394"
       height="89.203827"
       id="rect7612" />
    <inkscape:path-effect
       effect="bspline"
       id="path-effect3427"
       is_visible="true"
       lpeversion="1"
       weight="33.333333"
       steps="2"
       helper_size="0"
       apply_no_weight="true"
       apply_with_weight="true"
       only_selected="false" />
    <rect
       x="230.12785"
       y="617.36639"
       width="364.32394"
       height="89.203827"
       id="rect11396" />
  </defs>
  <g
     inkscape:label="Layer 1"
     inkscape:groupmode="layer"
     id="layer1"
     transform="translate(-25.000024,-59.999953)">
    <path
       id="path103"
       style="fill:#000000;stroke-width:1.14625"
       d="M 408.54492,226.77148 A 314.05624,314.05624 0 0 0 94.488281,540.82812 314.05624,314.05624 0 0 0 408.54492,854.88477 314.05624,314.05624 0 0 0 722.60156,540.82812 314.05624,314.05624 0 0 0 408.54492,226.77148 Z m 0.47852,9.56055 A 304.6514,304.6514 0 0 1 713.67383,540.98438 304.6514,304.6514 0 0 1 409.02344,845.63477 304.6514,304.6514 0 0 1 104.37109,540.98438 304.6514,304.6514 0 0 1 409.02344,236.33203 Z m 0.74218,13.12305 a 290.97103,290.97103 0 0 0 -290.9707,290.9707 290.97103,290.97103 0 0 0 290.9707,290.9707 290.97103,290.97103 0 0 0 290.97071,-290.9707 290.97103,290.97103 0 0 0 -290.97071,-290.9707 z m 221.11329,131.63867 c 4.16613,0.0543 7.82014,0.1728 10.20312,0.36328 4.33963,0.34688 8.97517,0.68808 10.30078,0.75977 1.41396,0.0765 2.68856,0.57854 3.08594,1.21484 0.619,0.99116 -0.28499,1.08952 -10.5,1.13477 -6.14802,0.0272 -11.38726,0.17813 -11.64258,0.33593 -0.25533,0.1578 -4.01195,0.77322 -8.34765,1.36719 -8.08037,1.10697 -12.55448,2.09157 -20.04688,4.41016 -6.41362,1.98475 -10.09914,3.3309 -11.00586,4.01953 -0.44744,0.33983 -1.24192,0.45291 -1.76562,0.25195 -0.52369,-0.20096 -1.04444,-0.13561 -1.15821,0.14453 -0.11378,0.28013 -2.55285,1.63049 -5.41992,3.00196 -25.61412,12.25259 -49.16339,31.97397 -75.02148,62.82422 -3.18272,3.79715 -6.17228,7.34622 -6.64258,7.88867 -1.83283,2.11404 -4.27455,5.09629 -7.27149,8.87695 -1.72001,2.16982 -7.54459,8.97524 -12.94336,15.12305 -5.39874,6.1478 -16.98179,19.75865 -25.73828,30.24609 -19.08444,22.85697 -26.18464,30.57003 -28.15625,30.58398 -0.94201,0.007 -1.14678,0.18478 -0.60742,0.52735 0.91328,0.58007 -2.79339,4.4237 -9.24414,9.58594 -4.31159,3.45037 -15.12585,9.0954 -21.04492,10.98632 -7.03356,2.24695 -21.7089,3.22121 -28.43555,1.88672 -10.96505,-2.17533 -31.16392,-12.46867 -49.3789,-25.16211 -8.62228,-6.00858 -8.46894,-5.89521 -12.37891,-9.18945 -1.44654,-1.21876 -3.81323,-3.0811 -5.25977,-4.13867 -1.44655,-1.05756 -2.77817,-2.09262 -2.95898,-2.30078 -0.18082,-0.20815 -1.95631,-1.57269 -3.94531,-3.03321 -3.88651,-2.85387 -20.05259,-16.89892 -20.75,-18.02734 -0.8289,-1.34119 0.28232,-1.32272 2.97461,0.0508 1.50461,0.76759 7.52534,4.23656 13.3789,7.70703 21.35502,12.66099 30.46713,16.75607 44.83399,20.15625 11.18934,2.64816 18.09888,3.16655 27.53711,2.0625 17.83327,-2.08607 35.58779,-10.95528 52.35156,-26.15039 6.69941,-6.07251 16.12457,-15.77381 22.33984,-22.99414 1.16636,-1.35496 2.43338,-2.27067 2.81446,-2.03515 0.38108,0.23553 0.51363,0.13902 0.29492,-0.21485 -0.21871,-0.35388 0.96161,-2.19836 2.62304,-4.09765 2.30688,-2.63711 3.16932,-3.24589 3.64649,-2.58008 0.45898,0.64041 0.52216,0.5569 0.24023,-0.31446 -0.45314,-1.40056 5.26887,-7.92397 6.35938,-7.25 0.39744,0.24563 0.47985,0.0986 0.19922,-0.35546 -1.11687,-1.80714 33.49385,-37.17387 49,-50.07032 27.74908,-23.0789 53.02369,-36.22877 85.20117,-44.32812 3.68189,-0.92677 7.47304,-1.68555 8.42578,-1.68555 0.95274,0 2.2841,-0.29415 2.95703,-0.6543 1.2845,-0.68744 18.39807,-1.0907 30.89649,-0.92773 z m 2.98437,241.42578 c 5.41961,0 8.55097,1.56723 11.80274,4.57813 l -3.13086,3.25195 c -2.52916,-2.3485 -5.23946,-3.43359 -8.67188,-3.43359 -6.02179,0 -11.80273,4.21622 -11.80273,16.98242 0,12.04358 3.79338,17.04101 11.01953,17.04101 2.89046,0 5.54017,-0.66153 7.88867,-1.98633 v -12.58593 h -8.12891 l -0.60156,-4.39649 h 13.96875 v 19.75196 c -3.73351,2.10762 -7.70769,3.61328 -13.54883,3.61328 -9.87574,0 -16.19726,-7.10564 -16.19726,-21.4375 0,-14.27165 8.42987,-21.37891 17.40234,-21.37891 z m -446.69726,0.66406 h 10.53906 c 9.93596,0 16.01758,4.09425 16.01758,12.76563 0,9.69508 -6.6838,13.30859 -16.01758,13.30859 h -5.35938 v 15.41602 h -5.17968 z m 71.41992,0 h 10.59765 c 10.23705,0 15.59571,3.97375 15.59571,11.68164 0,6.20245 -4.39453,9.99618 -10.11524,11.44141 l 12.34375,18.36719 h -6.26172 L 269.36328,646.9082 h -5.59961 v 17.76563 h -5.17773 z m 80.87109,0 h 6.625 l 13.48828,41.49024 h -5.41992 l -3.31055,-10.59961 h -16.43945 l -3.3125,10.59961 h -5.17969 z m 58.89453,0 h 5.7793 l 11.02148,20.83399 11.14063,-20.83399 h 5.41797 l -14.0293,25.47071 v 16.01953 h -5.30078 v -15.95899 z m 77.07813,0 h 23.72656 v 4.21485 h -9.21289 v 33.11914 h 9.21289 v 4.15625 h -23.72656 v -4.15625 h 9.21289 v -33.11914 h -9.21289 z m 71.05664,0 h 7.10742 l 14.87305,36.61133 c -0.0602,-1.6861 -0.72266,-8.37087 -0.72266,-15.83789 v -20.77344 h 4.87695 v 41.49024 h -7.3457 l -14.63281,-36.4336 c 0.12043,1.80654 0.72265,9.27511 0.72265,15.65821 v 20.77539 h -4.8789 z m -354.14063,4.1543 v 17.76367 h 5.83985 c 5.7207,0 9.9375,-1.98608 9.9375,-9.09179 0,-6.3831 -4.1556,-8.67188 -9.75586,-8.67188 z m 71.41797,0.0606 v 15.41601 h 6.08203 c 5.96158,0 9.39453,-2.22851 9.39453,-7.94922 0,-5.35939 -3.07197,-7.46679 -9.45507,-7.46679 z m 78.88477,0.24023 -6.86328,22.09961 h 13.66796 z m -125.85938,59.95899 h 5.24024 v 41.49023 h -5.24024 z m 21.79883,0 h 6.08203 l -16.19726,19.02929 17.34179,22.46094 h -6.5625 l -16.92187,-22.16016 z m 51.72852,0 h 23.54492 l -0.60156,4.33593 h -17.76563 v 13.97071 h 15.41602 v 4.27539 h -15.41602 v 14.69336 h 18.9082 v 4.21484 h -24.08593 z m 70.8164,0 h 10.59766 c 10.23705,0 15.5957,3.97374 15.5957,11.68164 0,6.20244 -4.39453,9.99617 -10.11523,11.4414 l 12.34375,18.36719 h -6.26172 l -11.38086,-17.76367 h -5.60156 v 17.76367 h -5.17774 z m 80.87305,0 h 6.62305 l 13.48828,41.49023 h -5.41992 l -3.31055,-10.59766 h -16.43945 l -3.3125,10.59766 h -5.17969 z m 65.69726,0 h 5.17774 v 36.85351 h 18.96875 l -0.66211,4.63672 h -23.48438 z m 78.82422,0 h 6.625 l 13.48828,41.49023 h -5.41992 l -3.31054,-10.59766 H 581.4707 l -3.3125,10.59766 h -5.17968 z m -220.21679,4.21484 v 15.41602 h 6.08203 c 5.96157,0 9.39453,-2.22852 9.39453,-7.94922 0,-5.3594 -3.07198,-7.4668 -9.45508,-7.4668 z m 78.88672,0.24219 -6.86524,22.09961 h 13.66992 z m 144.52148,0 -6.86328,22.09961 h 13.66797 z"
       transform="scale(0.26458333)" />
  </g>
</svg>
